<?xml version="1.0" encoding="utf-8"?>
<!-- Generator: Adobe Illustrator 25.2.3, SVG Export Plug-In . SVG Version: 6.00 Build 0)  -->
<svg version="1.1" id="레이어_1" xmlns="http://www.w3.org/2000/svg" xmlns:xlink="http://www.w3.org/1999/xlink" x="0px"
	 y="0px" viewBox="0 0 585.8 601.1" style="enable-background:new 0 0 585.8 601.1;" xml:space="preserve">
<style type="text/css">
	.st0{fill:none;stroke:#FFFFFF;stroke-width:8;stroke-miterlimit:10;}
	.st1{fill:#FFFFFF;}
</style>
<path class="st0" d="M266.1,167.1c0,0,22.6-25.3,33.4-20.6c11,4.7-3.6,49.5-3.6,49.5"/>
<path class="st0" d="M260.2,167.3c-19.9-4-52.2-5.9-69.1,21.7s-10.4,45.5-4.5,54.5c11.8,17.8,35.8,24.3,59,22.4
	c23.2-1.9,49.1-11.6,53.5-39.1C303.6,199.1,285.9,172.5,260.2,167.3z"/>
<path class="st0" d="M191.1,189.1c0,0-7-36.6-0.6-45.8c6.4-9.2,15.9,2.7,31.7,24"/>
<ellipse transform="matrix(0.1272 -0.9919 0.9919 0.1272 21.541 437.9634)" class="st1" cx="259.6" cy="206.7" rx="9.6" ry="6.4"/>
<ellipse transform="matrix(0.1272 -0.9919 0.9919 0.1272 -12.8081 398.7466)" class="st1" cx="220.2" cy="206.7" rx="9.6" ry="6.4"/>
<polygon class="st1" points="236.1,220.4 233.6,216.1 231.1,211.8 243,211.8 239.6,216.9 "/>
<g>
	<path class="st0" d="M279.4,216.1c0,0,26.1-6.5,51.8,0"/>
	<path class="st0" d="M279.4,226.9c0,0,29.9,2.3,48.3,5"/>
	<path class="st0" d="M199.7,213.7c-13.3-3.1-27.1-4.2-40.7-3.1"/>
	<path class="st0" d="M199.7,226.4c0,0-37.8-0.8-46.7,2.1"/>
</g>
<polyline class="st0" points="229.4,225.9 236.6,220.4 244.5,225.9 "/>
<path class="st0" d="M274.9,459.1c18.6,0.8,43.7,0.9,51.8-4.2c13.4-8.4,45.4-30.5,25.1-93.7c-11.3-35.2-39.9-42.8-65.8-109.6"/>
<path class="st0" d="M215.3,262.8c0,0-19.7,66.3-6.5,123.1l11.7,49.8c0,0-13.4,6.3-5.2,17.6c8.2,11.3,33.8,4.1,33.8,4.1"/>
<path class="st0" d="M243.9,369.6l5,66.5c0,0-14,13.3,1.6,22.1c10,5.6,27.2,1,27.2,1l3.4-89.6"/>
<path class="st0" d="M359.1,386.1c0,0,30.5-26.5,26.5-62.4c-4.6-41.4-14.6-51.1-21.3-74.9s6.2-55.9,41.8-53.5
	c18.4,1.3,24.3,5.7,23.8,11.4s-8.8,10.9-23,8.3s-29.2,3.2-23.8,29.6c5.4,26.4,21.3,42.2,21.8,86.6c0.3,33.9-20.8,58-46.6,79.7"/>
</svg>
